# xmcd
#
# Track frame offsets: 
#        150
#        10466
#        21691
#        36469
#        50867
#        63792
#        73488
#        84619
#        93709
#        106226
#        121624
#
# Disc length: 1792 seconds
#
# Revision: 0
# Processed by: cddbd v1.5.1PL0 Copyright (c) Steve Scherf et al.
# Submitted via: ExactAudioCopy v0.95a5
#
DISCID=a106fe0b
DTITLE=Tex Ritter - The Singing Cowboy
DYEAR=2003
DGENRE=Country
TTITLE0=Boll Weevil
TTITLE1=Green Grow The Lilacs
TTITLE2=Conversation With A Gun
TTITLE3=The Fool's Paradise
TTITLE4=High Noon (Do Not Forsake Me)
TTITLE5=Froggy Went A Courtin'
TTITLE6=Have I Stayed Away Too Long?
TTITLE7=The Keeper Of The Keys
TTITLE8=The Gallows Pole
TTITLE9=I Dreamed Of A Hillbilly Heaven 
TTITLE10=I'm Wastin' My Tears On You
EXTD=
EXTT0=
EXTT1=
EXTT2=
EXTT3=
EXTT4=
EXTT5=
EXTT6=
EXTT7=
EXTT8=
EXTT9=
EXTT10=
PLAYORDER=
